<?xml version="1.0" standalone="no"?>
<!DOCTYPE svg PUBLIC "-//W3C//DTD SVG 20010904//EN"
 "http://www.w3.org/TR/2001/REC-SVG-20010904/DTD/svg10.dtd">
<svg version="1.0" xmlns="http://www.w3.org/2000/svg"
 width="465.000000pt" height="465.000000pt" viewBox="0 0 465.000000 465.000000"
 preserveAspectRatio="xMidYMid meet">

<g transform="translate(0.000000,465.000000) scale(0.100000,-0.100000)"
fill="#000000" stroke="none">
<path d="M1496 4338 c-12 -18 -13 -32 -6 -63 13 -58 5 -74 -41 -81 -58 -10
-84 -39 -56 -63 10 -8 29 -7 71 4 31 8 59 15 61 15 3 0 8 -18 11 -40 8 -49 39
-91 60 -83 13 5 14 18 9 74 l-7 68 55 16 c102 29 73 81 -32 57 -51 -12 -58 -9
-64 28 -5 34 -24 77 -36 84 -6 4 -17 -4 -25 -16z m62 -143 c2 -25 -21 -45 -35
-31 -7 7 16 56 27 56 3 0 7 -11 8 -25z"/>
<path d="M3075 3766 c-68 -19 -136 -50 -319 -144 -24 -12 -49 -13 -185 -2
-192 16 -456 9 -605 -16 -105 -17 -109 -17 -140 1 -140 83 -216 119 -296 141
-52 14 -149 34 -170 34 -66 0 -126 -77 -150 -195 -15 -73 -18 -243 -6 -342 8
-63 7 -73 -6 -73 -13 0 -38 -34 -26 -35 2 0 -3 -7 -10 -15 -55 -65 -63 -80
-40 -80 6 0 3 -10 -8 -22 -10 -13 -12 -17 -4 -10 16 14 34 16 26 3 -7 -11 20
-8 31 3 4 4 2 6 -6 4 -7 -1 -16 3 -18 10 -3 7 -1 11 4 10 4 -2 8 2 8 7 0 6 -8
9 -18 7 -16 -2 -16 0 -5 12 8 7 27 13 43 12 23 -1 29 4 32 24 2 19 1 22 -7 10
-5 -8 -10 -10 -10 -4 0 19 13 24 29 12 9 -7 13 -9 10 -5 -4 4 7 21 23 38 29
29 30 31 21 92 -15 116 -7 274 19 361 13 43 31 84 40 90 47 29 256 -34 398
-121 128 -78 124 -77 173 -59 121 44 560 50 746 11 82 -17 98 -15 156 25 36
25 186 100 210 105 6 1 30 9 55 18 25 8 66 18 92 22 44 7 50 5 77 -22 42 -43
55 -117 53 -301 l-1 -154 55 -78 c116 -166 146 -273 145 -515 -2 -233 -30
-375 -106 -525 -69 -137 -241 -258 -441 -311 -94 -25 -226 -48 -237 -42 -20
12 1 -24 23 -39 14 -10 21 -18 16 -18 -5 0 -3 -7 4 -15 7 -8 17 -15 22 -15 6
0 6 6 -1 14 -8 9 -8 16 -2 20 15 10 19 -5 16 -52 -3 -30 1 -45 11 -49 8 -3 14
-9 14 -15 0 -5 -4 -6 -10 -3 -6 3 -7 -1 -4 -9 9 -23 22 -20 27 7 4 19 4 18 6
-5 1 -19 -4 -28 -14 -28 -9 0 -12 -6 -8 -16 3 -8 12 -13 19 -10 7 3 16 1 19
-5 10 -15 22 -2 20 23 -1 13 -8 22 -14 20 -15 -3 -14 15 2 21 8 4 8 8 2 14 -5
4 -11 19 -13 32 -1 14 -10 33 -19 43 -16 18 -16 18 3 12 16 -7 17 -6 6 8 -10
13 -10 16 0 15 27 -3 178 36 178 46 0 6 3 8 6 4 20 -19 238 91 312 158 51 47
138 157 141 178 0 4 11 26 25 50 39 67 55 132 82 337 20 148 10 362 -22 456
-32 96 -117 255 -149 276 -6 5 -10 69 -11 165 -1 231 -31 339 -107 394 -50 36
-98 37 -212 5z m-256 -2132 c4 3 7 -3 8 -13 1 -10 -4 -18 -12 -18 -7 0 -11 7
-7 15 3 10 1 13 -6 8 -8 -5 -10 -1 -5 10 4 11 8 13 11 6 2 -7 7 -10 11 -8z"/>
<path d="M3708 3403 c-28 -7 -21 -34 20 -76 l37 -39 -39 -32 c-42 -36 -46 -69
-9 -74 20 -3 157 70 170 90 2 5 2 19 -1 31 -6 26 -151 106 -178 100z"/>
<path d="M1123 2955 c0 -8 4 -12 9 -9 4 3 8 9 8 15 0 5 -4 9 -8 9 -5 0 -9 -7
-9 -15z"/>
<path d="M3429 1574 c-49 -20 -74 -67 -66 -124 7 -52 38 -87 89 -101 71 -19
150 41 150 114 0 43 -31 91 -72 112 -36 18 -55 18 -101 -1z m95 -55 c46 -36
27 -111 -31 -122 -38 -7 -59 7 -73 47 -24 73 44 122 104 75z"/>
<path d="M2814 1489 c-3 -5 -3 -23 1 -39 4 -17 7 -52 8 -78 0 -26 2 -37 4 -25
4 19 8 21 24 13 10 -6 19 -8 19 -5 0 11 -27 34 -33 29 -3 -3 -7 13 -9 36 -4
43 8 63 23 39 5 -8 9 -25 10 -39 1 -15 5 -8 10 19 5 25 6 47 4 50 -10 9 -55 9
-61 0z"/>
<path d="M2822 1150 c0 -14 2 -19 5 -12 2 6 2 18 0 25 -3 6 -5 1 -5 -13z"/>
<path d="M3525 540 c-3 -5 -1 -10 4 -10 6 0 11 5 11 10 0 6 -2 10 -4 10 -3 0
-8 -4 -11 -10z"/>
</g>
</svg>
